<mxfile host="app.diagrams.net" modified="2022-09-15T02:52:51.006Z" agent="5.0 (Windows NT 10.0; Win64; x64) AppleWebKit/537.36 (KHTML, like Gecko) Chrome/105.0.0.0 Safari/537.36 Edg/105.0.1343.33" etag="yvYtTAyrhVbOm-VZUcS6" version="20.3.0" type="github" pages="2">
  <diagram id="Jw9HLEhtM-H6NixcfuZA" name="总览">
    <mxGraphModel dx="1038" dy="579" grid="1" gridSize="10" guides="1" tooltips="1" connect="1" arrows="1" fold="1" page="1" pageScale="1" pageWidth="827" pageHeight="1169" math="0" shadow="0">
      <root>
        <mxCell id="0" />
        <mxCell id="1" parent="0" />
        <mxCell id="-Q4PbEb4LlJR933DUh8T-6" value="公司学习计划" style="shape=table;startSize=30;container=1;collapsible=0;childLayout=tableLayout;" vertex="1" parent="1">
          <mxGeometry x="100" y="80" width="130" height="80" as="geometry" />
        </mxCell>
        <mxCell id="-Q4PbEb4LlJR933DUh8T-7" value="" style="shape=tableRow;horizontal=0;startSize=0;swimlaneHead=0;swimlaneBody=0;top=0;left=0;bottom=0;right=0;collapsible=0;dropTarget=0;fillColor=none;points=[[0,0.5],[1,0.5]];portConstraint=eastwest;" vertex="1" parent="-Q4PbEb4LlJR933DUh8T-6">
          <mxGeometry y="30" width="130" height="50" as="geometry" />
        </mxCell>
        <mxCell id="-Q4PbEb4LlJR933DUh8T-8" value="&#xa;&lt;span style=&quot;color: rgb(0, 0, 0); font-family: Helvetica; font-size: 12px; font-style: normal; font-variant-ligatures: normal; font-variant-caps: normal; font-weight: 400; letter-spacing: normal; orphans: 2; text-align: center; text-indent: 0px; text-transform: none; widows: 2; word-spacing: 0px; -webkit-text-stroke-width: 0px; background-color: rgb(248, 249, 250); text-decoration-thickness: initial; text-decoration-style: initial; text-decoration-color: initial; float: none; display: inline !important;&quot;&gt;NASE相关&lt;/span&gt;&#xa;&#xa;" style="shape=partialRectangle;html=1;whiteSpace=wrap;connectable=0;overflow=hidden;fillColor=none;top=0;left=0;bottom=0;right=0;pointerEvents=1;" vertex="1" parent="-Q4PbEb4LlJR933DUh8T-7">
          <mxGeometry width="130" height="50" as="geometry">
            <mxRectangle width="130" height="50" as="alternateBounds" />
          </mxGeometry>
        </mxCell>
        <mxCell id="-Q4PbEb4LlJR933DUh8T-9" value="个人计划" style="shape=table;startSize=30;container=1;collapsible=0;childLayout=tableLayout;" vertex="1" parent="1">
          <mxGeometry x="500" y="80" width="220" height="225" as="geometry" />
        </mxCell>
        <mxCell id="-Q4PbEb4LlJR933DUh8T-10" value="" style="shape=tableRow;horizontal=0;startSize=0;swimlaneHead=0;swimlaneBody=0;top=0;left=0;bottom=0;right=0;collapsible=0;dropTarget=0;fillColor=none;points=[[0,0.5],[1,0.5]];portConstraint=eastwest;" vertex="1" parent="-Q4PbEb4LlJR933DUh8T-9">
          <mxGeometry y="30" width="220" height="65" as="geometry" />
        </mxCell>
        <mxCell id="-Q4PbEb4LlJR933DUh8T-11" value="学习计划" style="shape=partialRectangle;html=1;whiteSpace=wrap;connectable=0;overflow=hidden;fillColor=none;top=0;left=0;bottom=0;right=0;pointerEvents=1;" vertex="1" parent="-Q4PbEb4LlJR933DUh8T-10">
          <mxGeometry width="110" height="65" as="geometry">
            <mxRectangle width="110" height="65" as="alternateBounds" />
          </mxGeometry>
        </mxCell>
        <mxCell id="-Q4PbEb4LlJR933DUh8T-12" value="项目计划" style="shape=partialRectangle;html=1;whiteSpace=wrap;connectable=0;overflow=hidden;fillColor=none;top=0;left=0;bottom=0;right=0;pointerEvents=1;" vertex="1" parent="-Q4PbEb4LlJR933DUh8T-10">
          <mxGeometry x="110" width="110" height="65" as="geometry">
            <mxRectangle width="110" height="65" as="alternateBounds" />
          </mxGeometry>
        </mxCell>
        <mxCell id="-Q4PbEb4LlJR933DUh8T-13" value="" style="shape=tableRow;horizontal=0;startSize=0;swimlaneHead=0;swimlaneBody=0;top=0;left=0;bottom=0;right=0;collapsible=0;dropTarget=0;fillColor=none;points=[[0,0.5],[1,0.5]];portConstraint=eastwest;" vertex="1" parent="-Q4PbEb4LlJR933DUh8T-9">
          <mxGeometry y="95" width="220" height="65" as="geometry" />
        </mxCell>
        <mxCell id="-Q4PbEb4LlJR933DUh8T-14" value="Python之argparse" style="shape=partialRectangle;html=1;whiteSpace=wrap;connectable=0;overflow=hidden;fillColor=none;top=0;left=0;bottom=0;right=0;pointerEvents=1;" vertex="1" parent="-Q4PbEb4LlJR933DUh8T-13">
          <mxGeometry width="110" height="65" as="geometry">
            <mxRectangle width="110" height="65" as="alternateBounds" />
          </mxGeometry>
        </mxCell>
        <mxCell id="-Q4PbEb4LlJR933DUh8T-15" value="Node.js实现单点登录" style="shape=partialRectangle;html=1;whiteSpace=wrap;connectable=0;overflow=hidden;fillColor=none;top=0;left=0;bottom=0;right=0;pointerEvents=1;" vertex="1" parent="-Q4PbEb4LlJR933DUh8T-13">
          <mxGeometry x="110" width="110" height="65" as="geometry">
            <mxRectangle width="110" height="65" as="alternateBounds" />
          </mxGeometry>
        </mxCell>
        <mxCell id="-Q4PbEb4LlJR933DUh8T-16" style="shape=tableRow;horizontal=0;startSize=0;swimlaneHead=0;swimlaneBody=0;top=0;left=0;bottom=0;right=0;collapsible=0;dropTarget=0;fillColor=none;points=[[0,0.5],[1,0.5]];portConstraint=eastwest;" vertex="1" parent="-Q4PbEb4LlJR933DUh8T-9">
          <mxGeometry y="160" width="220" height="65" as="geometry" />
        </mxCell>
        <mxCell id="-Q4PbEb4LlJR933DUh8T-17" style="shape=partialRectangle;html=1;whiteSpace=wrap;connectable=0;overflow=hidden;fillColor=none;top=0;left=0;bottom=0;right=0;pointerEvents=1;" vertex="1" parent="-Q4PbEb4LlJR933DUh8T-16">
          <mxGeometry width="110" height="65" as="geometry">
            <mxRectangle width="110" height="65" as="alternateBounds" />
          </mxGeometry>
        </mxCell>
        <mxCell id="-Q4PbEb4LlJR933DUh8T-18" value="个人网站建设" style="shape=partialRectangle;html=1;whiteSpace=wrap;connectable=0;overflow=hidden;fillColor=none;top=0;left=0;bottom=0;right=0;pointerEvents=1;" vertex="1" parent="-Q4PbEb4LlJR933DUh8T-16">
          <mxGeometry x="110" width="110" height="65" as="geometry">
            <mxRectangle width="110" height="65" as="alternateBounds" />
          </mxGeometry>
        </mxCell>
      </root>
    </mxGraphModel>
  </diagram>
  <diagram id="SnZzHuHroEWOHU5pDWOy" name="NASE相关">
    <mxGraphModel dx="1038" dy="579" grid="1" gridSize="10" guides="1" tooltips="1" connect="1" arrows="1" fold="1" page="1" pageScale="1" pageWidth="827" pageHeight="1169" math="0" shadow="0">
      <root>
        <mxCell id="0" />
        <mxCell id="1" parent="0" />
        <mxCell id="3Q0mUgDl-Ia8Ntp3xX22-26" value="NASE学习计划" style="shape=table;startSize=30;container=1;collapsible=0;childLayout=tableLayout;" vertex="1" parent="1">
          <mxGeometry x="210" y="30" width="360" height="140" as="geometry" />
        </mxCell>
        <mxCell id="3Q0mUgDl-Ia8Ntp3xX22-27" value="" style="shape=tableRow;horizontal=0;startSize=0;swimlaneHead=0;swimlaneBody=0;top=0;left=0;bottom=0;right=0;collapsible=0;dropTarget=0;fillColor=none;points=[[0,0.5],[1,0.5]];portConstraint=eastwest;" vertex="1" parent="3Q0mUgDl-Ia8Ntp3xX22-26">
          <mxGeometry y="30" width="360" height="35" as="geometry" />
        </mxCell>
        <mxCell id="3Q0mUgDl-Ia8Ntp3xX22-33" value="知识点列表" style="shape=partialRectangle;html=1;whiteSpace=wrap;connectable=0;overflow=hidden;fillColor=none;top=0;left=0;bottom=0;right=0;pointerEvents=1;" vertex="1" parent="3Q0mUgDl-Ia8Ntp3xX22-27">
          <mxGeometry width="120" height="35" as="geometry">
            <mxRectangle width="120" height="35" as="alternateBounds" />
          </mxGeometry>
        </mxCell>
        <mxCell id="3Q0mUgDl-Ia8Ntp3xX22-28" value="完成情况" style="shape=partialRectangle;html=1;whiteSpace=wrap;connectable=0;overflow=hidden;fillColor=none;top=0;left=0;bottom=0;right=0;pointerEvents=1;" vertex="1" parent="3Q0mUgDl-Ia8Ntp3xX22-27">
          <mxGeometry x="120" width="120" height="35" as="geometry">
            <mxRectangle width="120" height="35" as="alternateBounds" />
          </mxGeometry>
        </mxCell>
        <mxCell id="3Q0mUgDl-Ia8Ntp3xX22-29" value="备注" style="shape=partialRectangle;html=1;whiteSpace=wrap;connectable=0;overflow=hidden;fillColor=none;top=0;left=0;bottom=0;right=0;pointerEvents=1;" vertex="1" parent="3Q0mUgDl-Ia8Ntp3xX22-27">
          <mxGeometry x="240" width="120" height="35" as="geometry">
            <mxRectangle width="120" height="35" as="alternateBounds" />
          </mxGeometry>
        </mxCell>
        <mxCell id="3Q0mUgDl-Ia8Ntp3xX22-30" value="" style="shape=tableRow;horizontal=0;startSize=0;swimlaneHead=0;swimlaneBody=0;top=0;left=0;bottom=0;right=0;collapsible=0;dropTarget=0;fillColor=none;points=[[0,0.5],[1,0.5]];portConstraint=eastwest;" vertex="1" parent="3Q0mUgDl-Ia8Ntp3xX22-26">
          <mxGeometry y="65" width="360" height="75" as="geometry" />
        </mxCell>
        <mxCell id="3Q0mUgDl-Ia8Ntp3xX22-34" value="白皮书" style="shape=partialRectangle;html=1;whiteSpace=wrap;connectable=0;overflow=hidden;fillColor=none;top=0;left=0;bottom=0;right=0;pointerEvents=1;" vertex="1" parent="3Q0mUgDl-Ia8Ntp3xX22-30">
          <mxGeometry width="120" height="75" as="geometry">
            <mxRectangle width="120" height="75" as="alternateBounds" />
          </mxGeometry>
        </mxCell>
        <mxCell id="3Q0mUgDl-Ia8Ntp3xX22-31" value="" style="shape=partialRectangle;html=1;whiteSpace=wrap;connectable=0;overflow=hidden;fillColor=none;top=0;left=0;bottom=0;right=0;pointerEvents=1;" vertex="1" parent="3Q0mUgDl-Ia8Ntp3xX22-30">
          <mxGeometry x="120" width="120" height="75" as="geometry">
            <mxRectangle width="120" height="75" as="alternateBounds" />
          </mxGeometry>
        </mxCell>
        <mxCell id="3Q0mUgDl-Ia8Ntp3xX22-32" value="" style="shape=partialRectangle;html=1;whiteSpace=wrap;connectable=0;overflow=hidden;fillColor=none;top=0;left=0;bottom=0;right=0;pointerEvents=1;" vertex="1" parent="3Q0mUgDl-Ia8Ntp3xX22-30">
          <mxGeometry x="240" width="120" height="75" as="geometry">
            <mxRectangle width="120" height="75" as="alternateBounds" />
          </mxGeometry>
        </mxCell>
      </root>
    </mxGraphModel>
  </diagram>
</mxfile>
